<svg id="eew9GKTg2y01" xmlns="http://www.w3.org/2000/svg" xmlns:xlink="http://www.w3.org/1999/xlink" viewBox="0 0 1200 1200" shape-rendering="geometricPrecision" text-rendering="geometricPrecision">

<rect width="300" height="300" rx="0" ry="0" transform="translate(600 0)" fill="#660404" stroke-width="0"/>
<rect width="300" height="300" rx="0" ry="0" transform="translate(600 600)" fill="#660404" stroke-width="0"/>
<rect width="300" height="300" rx="0" ry="0" transform="translate(600 900)" fill="#660404" stroke-width="0"/>
<rect width="300" height="300" rx="0" ry="0" transform="translate(900 600)" fill="#045a41" stroke-width="0"/>

<rect width="300" height="300" rx="0" ry="0" transform="translate(300 600)" fill="#c5670f" stroke-width="0"/>
<rect width="300" height="300" rx="0" ry="0" transform="translate(0 600)" fill="#472197" stroke-width="0"/>
<rect width="300" height="300" rx="0" ry="0" transform="translate(900 900)" fill="#045a41" stroke-width="0"/>
<rect width="300" height="300" rx="0" ry="0" transform="translate(300 900)" fill="#c5670f" stroke-width="0"/>

<rect width="300" height="300" rx="0" ry="0" transform="translate(0 900)" fill="#472197" stroke-width="0"/>
<rect width="300" height="300" rx="0" ry="0" transform="translate(600 300)" fill="#660404" stroke-width="0"/>
<rect width="300" height="300" rx="0" ry="0" transform="translate(900 0)" fill="#045a41" stroke-width="0"/>
<rect width="300" height="300" rx="0" ry="0" transform="translate(300 0)" fill="#c5670f" stroke-width="0"/>

<rect width="300" height="300" rx="0" ry="0" fill="#472197" stroke-width="0"/>
<rect width="300" height="300" rx="0" ry="0" transform="translate(900 300)" fill="#045a41" stroke-width="0"/>
<rect width="300" height="300" rx="0" ry="0" transform="translate(300 300)" fill="#c5670f" stroke-width="0"/>
<rect width="300" height="300" rx="0" ry="0" transform="translate(0 300)" fill="#472197" stroke-width="0"/>

</svg>
